<?xml version="1.0" encoding="UTF-8"?>
<svg width="32px" height="32px" viewBox="0 0 32 32" version="1.1" xmlns="http://www.w3.org/2000/svg" xmlns:xlink="http://www.w3.org/1999/xlink">
    <title>Icons / 32 / cookie</title>
    <g id="Icons-/-32-/-cookie" stroke="none" stroke-width="1" fill="none" fill-rule="evenodd">
        <path d="M11.75,3.75 C11.75,3.336 12.086,3 12.5,3 C12.914,3 13.25,3.336 13.25,3.75 C13.25,4.164 12.914,4.5 12.5,4.5 C12.086,4.5 11.75,4.164 11.75,3.75 M17.25,13.5 C17.25,13.914 16.914,14.25 16.5,14.25 C16.086,14.25 15.75,13.914 15.75,13.5 C15.75,13.086 16.086,12.75 16.5,12.75 C16.914,12.75 17.25,13.086 17.25,13.5 M22.25,14.5 C22.25,14.914 21.914,15.25 21.5,15.25 C21.086,15.25 20.75,14.914 20.75,14.5 C20.75,14.086 21.086,13.75 21.5,13.75 C21.914,13.75 22.25,14.086 22.25,14.5 M14.25,24.5 C14.25,24.914 13.914,25.25 13.5,25.25 C13.086,25.25 12.75,24.914 12.75,24.5 C12.75,24.086 13.086,23.75 13.5,23.75 C13.914,23.75 14.25,24.086 14.25,24.5 M25.25,17.5 C25.25,17.914 24.914,18.25 24.5,18.25 C24.086,18.25 23.75,17.914 23.75,17.5 C23.75,17.086 24.086,16.75 24.5,16.75 C24.914,16.75 25.25,17.086 25.25,17.5 M15.25,18.5 C15.25,18.914 14.914,19.25 14.5,19.25 C14.086,19.25 13.75,18.914 13.75,18.5 C13.75,18.086 14.086,17.75 14.5,17.75 C14.914,17.75 15.25,18.086 15.25,18.5 M6,8.5 C6,7.672 6.672,7 7.5,7 C8.328,7 9,7.672 9,8.5 C9,9.328 8.328,10 7.5,10 C6.672,10 6,9.328 6,8.5 M22,22.5 C22,23.328 21.328,24 20.5,24 C19.672,24 19,23.328 19,22.5 C19,21.672 19.672,21 20.5,21 C21.328,21 22,21.672 22,22.5 M19,10.5 C19,9.672 19.672,9 20.5,9 C21.328,9 22,9.672 22,10.5 C22,11.328 21.328,12 20.5,12 C19.672,12 19,11.328 19,10.5 M11,19.5 C11,20.328 10.328,21 9.5,21 C8.672,21 8,20.328 8,19.5 C8,18.672 8.672,18 9.5,18 C10.328,18 11,18.672 11,19.5 M16,28 C9.568,28 4.303,22.856 4.017,16.356 C5.622,16.458 7.186,15.625 8.104,14.273 C8.55,14.396 8.977,14.455 9.396,14.455 C12.138,14.455 14.41,12.28 14.596,9.548 C16.717,8.395 18.276,6.439 18.951,4.099 C24.223,5.447 28,10.319 28,15.862 C28,22.555 22.617,28 16,28 M18.694,3.011 C18.423,2.959 18.164,3.122 18.103,3.388 C17.558,5.75 16.02,7.72 13.883,8.792 C13.716,8.876 13.609,9.047 13.607,9.233 C13.582,11.562 11.693,13.455 9.396,13.455 C8.97,13.455 8.527,13.374 8.045,13.209 C7.818,13.128 7.565,13.227 7.447,13.437 C6.777,14.624 5.536,15.362 4.208,15.362 C3.995,15.362 3.79,15.333 3.588,15.298 C3.445,15.275 3.292,15.351 3.18,15.444 C3.066,15.54 3,15.715 3,15.862 C3,23.106 8.832,29 16,29 C23.168,29 29,23.106 29,15.862 C29,9.688 24.666,4.283 18.694,3.011" id="fill" fill="#343434"></path>
    </g>
</svg>